<svg width="39" height="46" viewBox="0 0 39 46" fill="none" xmlns="http://www.w3.org/2000/svg">
<path d="M17.2794 25.34V24.84C17.2794 23.1154 17.4192 21.824 17.7508 21.0488C17.7509 21.0487 17.751 21.0485 17.7511 21.0483L18.2107 21.2451C18.4967 20.575 19.3088 19.665 20.6471 18.515L17.2794 25.34ZM17.2794 25.34H17.7794H21.2206H21.7206V24.84C21.7206 23.6943 21.8395 22.9944 22.0121 22.6481C22.0971 22.4778 22.3004 22.1918 22.6604 21.7738C23.0126 21.365 23.4908 20.857 24.0981 20.2481C24.8161 19.5283 25.4172 18.7456 25.8991 17.9001C26.4006 17.0202 26.6529 16.0725 26.6529 15.065C26.6529 12.9858 25.9439 11.3548 24.4734 10.2636L24.4728 10.2632C23.0587 9.21668 21.3935 8.7 19.5 8.7C17.7187 8.7 16.1877 9.19932 14.9393 10.2206L14.939 10.2209C13.7234 11.2169 12.8643 12.4343 12.374 13.8682L12.2194 14.3202L12.6638 14.4952L15.8756 15.7602L16.3846 15.9607L16.5386 15.4357C16.7063 14.8641 17.0302 14.2822 17.53 13.6908C17.9475 13.1981 18.5752 12.92 19.5 12.92C20.4401 12.92 21.0585 13.1792 21.4517 13.6163C21.8954 14.1113 22.0971 14.6281 22.0971 15.18C22.0971 15.7262 21.9393 16.2058 21.6216 16.6352L21.6212 16.6358C21.259 17.1267 20.8214 17.6311 20.3064 18.1485L17.2794 25.34ZM21.0846 45.2276L20.5718 39.0586L20.5337 38.6H20.0735H19.5C14.2015 38.6 9.72208 36.754 6.03195 33.0544C2.34176 29.3548 0.5 24.8633 0.5 19.55C0.5 14.2367 2.34176 9.74525 6.03195 6.0456C9.72208 2.346 14.2015 0.5 19.5 0.5C22.1507 0.5 24.6154 0.995178 26.8998 1.98157C29.195 2.97354 31.2075 4.33718 32.9407 6.07335C34.6723 7.81095 36.0316 9.82779 37.0196 12.1275L37.0197 12.1276C38.0052 14.4198 38.5 16.8921 38.5 19.55C38.5 22.3695 38.0412 25.0729 37.1247 27.663C36.2028 30.2639 34.9438 32.6752 33.3472 34.8983C31.7477 37.1234 29.847 39.1428 27.6431 40.9563C25.6229 42.6176 23.437 44.0413 21.0846 45.2276ZM19.4426 32.6425C20.2254 32.6425 20.9072 32.3597 21.4599 31.8056C22.0125 31.2516 22.2941 30.5686 22.2941 29.785C22.2941 29.0014 22.0125 28.3184 21.4599 27.7644C20.9072 27.2103 20.2254 26.9275 19.4426 26.9275C18.6599 26.9275 17.9781 27.2103 17.4254 27.7644C16.8728 28.3184 16.5912 29.0014 16.5912 29.785C16.5912 30.5686 16.8728 31.2516 17.4254 31.8056C17.9781 32.3597 18.6599 32.6425 19.4426 32.6425Z" fill="#13171E" stroke="url(#paint0_linear_319_297)"/>
<defs>
<linearGradient id="paint0_linear_319_297" x1="28.7793" y1="-6.79545" x2="-0.033763" y2="-0.854325" gradientUnits="userSpaceOnUse">
<stop stop-color="#FFB639"/>
<stop offset="1" stop-color="#E49100"/>
</linearGradient>
</defs>
</svg>
