<svg width="39" height="46" viewBox="0 0 39 46" fill="none" xmlns="http://www.w3.org/2000/svg">
<path d="M20.6471 46L20.0735 39.1H19.5C14.0706 39.1 9.46323 37.2025 5.67794 33.4075C1.89265 29.6125 0 24.9933 0 19.55C0 14.1067 1.89265 9.4875 5.67794 5.6925C9.46323 1.8975 14.0706 0 19.5 0C22.2147 0 24.7474 0.507533 27.0981 1.5226C29.4504 2.5392 31.5158 3.93837 33.2945 5.7201C35.0717 7.50337 36.4665 9.57337 37.479 11.9301C38.493 14.2884 39 16.8283 39 19.55C39 22.425 38.532 25.185 37.596 27.83C36.6585 30.475 35.3776 32.9283 33.7534 35.19C32.1276 37.4517 30.1967 39.5025 27.9607 41.3425C25.7232 43.1825 23.2853 44.735 20.6471 46ZM19.4426 32.1425C20.0926 32.1425 20.6471 31.9125 21.1059 31.4525C21.5647 30.9925 21.7941 30.4367 21.7941 29.785C21.7941 29.1333 21.5647 28.5775 21.1059 28.1175C20.6471 27.6575 20.0926 27.4275 19.4426 27.4275C18.7926 27.4275 18.2382 27.6575 17.7794 28.1175C17.3206 28.5775 17.0912 29.1333 17.0912 29.785C17.0912 30.4367 17.3206 30.9925 17.7794 31.4525C18.2382 31.9125 18.7926 32.1425 19.4426 32.1425ZM17.7794 24.84H21.2206C21.2206 23.69 21.3353 22.885 21.5647 22.425C21.7941 21.965 22.5206 21.1217 23.7441 19.895C24.4324 19.205 25.0059 18.4575 25.4647 17.6525C25.9235 16.8475 26.1529 15.985 26.1529 15.065C26.1529 13.11 25.4938 11.6434 24.1754 10.6651C22.8555 9.68837 21.2971 9.2 19.5 9.2C17.8176 9.2 16.4029 9.6692 15.2559 10.6076C14.1088 11.5475 13.3059 12.6883 12.8471 14.03L16.0588 15.295C16.25 14.6433 16.6132 14.0009 17.1485 13.3676C17.6838 12.7359 18.4676 12.42 19.5 12.42C20.5324 12.42 21.307 12.7075 21.8239 13.2825C22.3394 13.8575 22.5971 14.49 22.5971 15.18C22.5971 15.8317 22.4059 16.4159 22.0235 16.9326C21.6412 17.4509 21.1824 17.9783 20.6471 18.515C19.3088 19.665 18.4967 20.575 18.2107 21.2451C17.9232 21.9167 17.7794 23.115 17.7794 24.84Z" fill="url(#paint0_linear_146_1664)"/>
<defs>
<linearGradient id="paint0_linear_146_1664" x1="28.7793" y1="-6.79545" x2="-0.033763" y2="-0.854325" gradientUnits="userSpaceOnUse">
<stop stop-color="#FFB639"/>
<stop offset="1" stop-color="#E49100"/>
</linearGradient>
</defs>
</svg>
